<?xml version="1.0" encoding="UTF-8"?>
<svg width="80px" height="80px" viewBox="0 0 80 80" version="1.1" xmlns="http://www.w3.org/2000/svg" xmlns:xlink="http://www.w3.org/1999/xlink">
    <!-- Generator: Sketch 46.2 (44496) - http://www.bohemiancoding.com/sketch -->
    <title>Group 5</title>
    <desc>Created with Sketch.</desc>
    <defs></defs>
    <g id="Page-1" stroke="none" stroke-width="1" fill="none" fill-rule="evenodd">
        <g id="Artboard-2" transform="translate(-306.000000, -270.000000)">
            <g id="Group-5" transform="translate(306.000000, 270.000000)">
                <circle id="Oval" fill="#4FBEF3" cx="40" cy="40" r="40"></circle>
                <path d="M51.0545377,24 L29.543455,24 C27.6176642,24 26,25.6946959 26,27.7938078 C26,29.7966302 27.4250852,31.4335523 29.2738443,31.5876156 L29.2738443,41.081764 C29.2738443,45.0103771 32.2010462,48.2457056 35.8407908,48.2457056 L37.9399027,48.2457056 L37.9399027,53.7727251 L36.3800122,53.7727251 C35.8407908,53.7727251 35.4171168,54.2156569 35.4171168,54.6971046 C35.4171168,55.236326 35.8600487,55.66 36.3800122,55.66 L43.9868856,55.66 C44.5261071,55.66 44.949781,55.2170681 44.949781,54.6971046 C44.949781,54.196399 44.5068491,53.7727251 43.9868856,53.7727251 L42.4269951,53.7727251 L42.4269951,48.2457056 L44.7957178,48.2457056 C48.3969465,48.2457056 51.3626642,45.0103771 51.3626642,41.081764 L51.3626642,31.5876156 C53.1729075,31.4142944 54.5979927,29.7773723 54.5979927,27.7938078 C54.5979927,25.7139538 53.0188443,24 51.0545377,24 Z M51.0545377,30.046983 L49.7835158,30.046983 L49.7835158,41.1202798 C49.7835158,44.1822871 47.5495985,46.7243309 44.7764599,46.7243309 L35.8407908,46.7243309 C33.0676521,46.7243309 30.8337348,44.1822871 30.8337348,41.1202798 L30.8337348,30.046983 L29.5241971,30.046983 C28.4650122,30.046983 27.5598905,29.0455718 27.5598905,27.8130657 C27.5598905,26.5805596 28.4650122,25.5791484 29.5241971,25.5791484 L51.0352798,25.5791484 C52.1329805,25.5791484 52.9995864,26.5805596 52.9995864,27.8130657 C53.0188443,29.0455718 52.1522384,30.046983 51.0545377,30.046983 Z" id="Shape" fill="#FFFFFF" fill-rule="nonzero"></path>
            </g>
        </g>
    </g>
</svg>