<?xml version="1.0" encoding="UTF-8"?>
<svg width="48px" height="48px" viewBox="0 0 48 48" version="1.1" xmlns="http://www.w3.org/2000/svg" xmlns:xlink="http://www.w3.org/1999/xlink">
    <!-- Generator: Sketch 46.2 (44496) - http://www.bohemiancoding.com/sketch -->
    <title>Artboard 3 Copy</title>
    <desc>Created with Sketch.</desc>
    <defs></defs>
    <g id="Page-1" stroke="none" stroke-width="1" fill="none" fill-rule="evenodd">
        <g id="Artboard-3-Copy" fill-rule="nonzero" fill="#FFFFFF">
            <path d="M29.1734502,15.4902943 L24.0112711,20.6524734 L18.849092,15.4902943 C18.1953663,14.8365686 17.1133375,14.8365686 16.4596118,15.4902943 L15.5128366,16.4370695 C14.8591108,17.0907952 14.8591108,18.172824 15.5128366,18.8265498 L20.6750157,23.9887289 L15.4902943,29.1734502 C14.8365686,29.827176 14.8365686,30.9092048 15.4902943,31.5629305 L16.4370695,32.5097057 C17.0907952,33.1634314 18.172824,33.1634314 18.8265498,32.5097057 L24.0112711,27.3475266 L29.1734502,32.5097057 C29.827176,33.1634314 30.9092048,33.1634314 31.5629305,32.5097057 L32.5097057,31.5629305 C33.1634314,30.9092048 33.1634314,29.827176 32.5097057,29.1734502 L27.3475266,24.0112711 L32.5097057,18.849092 C33.1634314,18.1953663 33.1634314,17.1133375 32.5097057,16.4596118 L31.5629305,15.5128366 C30.9092048,14.8365686 29.8497182,14.8365686 29.1734502,15.4902943 Z" id="Shape"></path>
        </g>
    </g>
</svg>