<?xml version="1.0" encoding="UTF-8"?>
<svg width="160px" height="52px" viewBox="0 0 160 52" version="1.1" xmlns="http://www.w3.org/2000/svg" xmlns:xlink="http://www.w3.org/1999/xlink">
    <!-- Generator: Sketch 46.2 (44496) - http://www.bohemiancoding.com/sketch -->
    <title>Group 4</title>
    <desc>Created with Sketch.</desc>
    <defs></defs>
    <g id="Page-1" stroke="none" stroke-width="1" fill="none" fill-rule="evenodd">
        <g id="Artboard" transform="translate(-387.000000, -25.000000)" fill="#FFFFFF">
            <g id="Group-4" transform="translate(467.000000, 50.909091) rotate(-360.000000) translate(-467.000000, -50.909091) translate(387.000000, 25.000000)">
                <path d="M67.3938398,9.04002777 C63.7857758,12.6481284 63.7857758,18.4983591 67.3938398,22.1064597 C71.5946912,26.3073538 78.4053088,26.3073538 82.6061602,22.1064597 C86.21472,18.4983408 86.21472,12.6481467 82.6061602,9.04002777 L75,1.43379032 L67.3938398,9.04002777 Z M83.3230244,22.8233786 C78.7262705,27.4201792 71.2737295,27.4201792 66.6769519,22.8233549 C62.6729617,18.819324 62.6729617,12.3271636 66.6769519,8.32313261 L75,0 L83.3230244,8.32310889 C87.3275499,12.3271453 87.3275499,18.8193422 83.3230244,22.8233786 Z M83.2793334,23.8814165 L66.7206666,23.8814165 L75,15.601999 L83.2793334,23.8814165 Z M75,17.0357894 L69.1682749,22.8675737 L80.8317251,22.8675737 L75,17.0357894 Z M85.5184815,21.6416951 L64.4815185,21.6416951 L75,11.1225368 L85.5184815,21.6416951 Z M75,12.556366 L66.929033,20.6278523 L83.070967,20.6278523 L75,12.556366 Z M86.7471529,18.4331957 L63.2472422,18.4382556 L75.0000086,6.68593204 L86.7471529,18.4331957 Z M74.9999914,8.11970522 L65.6954605,17.4238855 L84.3000715,17.4198797 L74.9999914,8.11970522 Z M74.4930837,0.71689516 L75.5069163,0.71689516 L75.5069163,7.32072405 L74.4930837,7.32072405 L74.4930837,0.71689516 Z M75.5069163,0.71689516 L75.5069163,7.32072405 L74.4930837,7.32072405 L74.4930837,0.71689516 L75.5069163,0.71689516 Z M74.4930837,16.3188942 L75.5069163,16.3188942 L75.5069163,25.4812535 L74.4930837,25.4812535 L74.4930837,16.3188942 Z M75.5069163,16.3188942 L75.5069163,25.4812535 L74.4930837,25.4812535 L74.4930837,16.3188942 L75.5069163,16.3188942 Z M82.6061602,42.7786804 C86.21472,39.1700839 86.21472,33.3198899 82.6061397,29.7122279 C78.405293,25.5108575 71.594707,25.5108575 67.3938603,29.7122279 C63.7857758,33.3198716 63.7857758,39.1701022 67.3938285,42.778669 L75,50.3844368 L82.6061602,42.7786804 Z M66.6769756,28.9953295 C71.2737137,24.3980184 78.7262863,24.3980184 83.3230006,28.9953058 C87.3275499,32.998836 87.3275499,39.491033 83.3230367,43.4955869 L75,51.8181818 L74.6415674,51.4597682 L66.6769282,43.4955518 C62.6729617,39.4910147 62.6729617,32.9988543 66.6769756,28.9953295 Z M66.7206666,27.9372916 L83.2793334,27.9372916 L75,36.2167091 L66.7206666,27.9372916 Z M75,34.7829188 L80.8317251,28.9511345 L69.1682749,28.9511345 L75,34.7829188 Z M64.4814716,30.177013 L85.5185284,30.177013 L75,40.6956483 L64.4814716,30.177013 Z M75,39.2618579 L83.0709201,31.1908559 L66.9290799,31.1908559 L75,39.2618579 Z M63.2528471,33.3855124 L86.7527578,33.3804526 L74.9999914,45.1327761 L63.2528471,33.3855124 Z M75.0000086,43.6990029 L84.3045395,34.3948226 L65.6999285,34.3988284 L75.0000086,43.6990029 Z M75.5069163,51.1013093 L74.4930837,51.1013093 L74.4930837,44.4974804 L75.5069163,44.4974804 L75.5069163,51.1013093 Z M74.4930837,51.1013093 L74.4930837,44.4974804 L75.5069163,44.4974804 L75.5069163,51.1013093 L74.4930837,51.1013093 Z M75.5069163,35.4998139 L74.4930837,35.4998139 L74.4930837,26.3374546 L75.5069163,26.3374546 L75.5069163,35.4998139 Z M74.4930837,35.4998139 L74.4930837,26.3374546 L75.5069163,26.3374546 L75.5069163,35.4998139 L74.4930837,35.4998139 Z M91.869155,18.3031166 C88.2605912,14.6945162 82.410942,14.6945162 78.8028557,18.3031166 C74.6020043,22.5040107 74.6020043,29.3146975 78.8028557,33.5155915 C82.4109237,37.1236961 88.2606095,37.1236961 91.869155,33.5155915 L99.4753152,25.9093541 L91.869155,18.3031166 Z M78.0859678,34.2324867 C73.4891902,29.6356624 73.4891902,22.1830458 78.0859441,17.5862452 C82.0899359,13.5816829 88.581545,13.5816829 92.5860428,17.5862215 L100.909091,25.9093541 L92.5860191,34.2325104 C88.5815267,38.2365137 82.0899542,38.2365137 78.0859678,34.2324867 Z M77.0279169,34.1887716 L77.0279169,17.6299366 L85.3072503,25.9093541 L77.0279169,34.1887716 Z M83.8734746,25.9093541 L78.0417495,20.0775698 L78.0417495,31.7411384 L83.8734746,25.9093541 Z M79.2676156,36.4279893 L79.2676156,15.3901683 L89.7861343,25.9093638 L79.2676156,36.4279893 Z M88.352378,25.9093444 L80.2814482,17.8378952 L80.2814482,33.9803561 L88.352378,25.9093444 Z M82.4760824,37.6560813 L82.4710226,14.1564769 L94.2232354,25.9093712 L82.4760824,37.6560813 Z M92.7894596,25.9093369 L83.4853823,16.6047201 L83.4893881,35.2090578 L92.7894596,25.9093369 Z M100.192203,25.4024326 L100.192203,26.4162755 L93.5884412,26.4162755 L93.5884412,25.4024326 L100.192203,25.4024326 Z M100.192203,26.4162755 L93.5884412,26.4162755 L93.5884412,25.4024326 L100.192203,25.4024326 L100.192203,26.4162755 Z M84.5903625,25.4024326 L84.5903625,26.4162755 L75.4280962,26.4162755 L75.4280962,25.4024326 L84.5903625,25.4024326 Z M84.5903625,26.4162755 L75.4280962,26.4162755 L75.4280962,25.4024326 L84.5903625,25.4024326 L84.5903625,26.4162755 Z M58.130845,33.5155915 C61.7389091,37.1236922 67.5890803,37.1236922 71.1971443,33.5155915 C75.3979957,29.3146975 75.3979957,22.5040107 71.1971443,18.3031166 C67.589062,14.6945202 61.7389274,14.6945202 58.130845,18.3031166 L50.5246848,25.9093541 L58.130845,33.5155915 Z M71.9140559,17.5862452 C76.5108098,22.1830458 76.5108098,29.6356624 71.9140322,34.2324867 C67.9100419,38.2365176 61.4179474,38.2365176 57.4139572,34.2324867 L49.0909091,25.9093541 L57.4139334,17.5862452 C61.4179291,13.581679 67.9100602,13.581679 71.9140559,17.5862452 Z M72.9720831,17.6299366 L72.9720831,34.1887716 L64.6927497,25.9093541 L72.9720831,17.6299366 Z M66.1265254,25.9093541 L71.9582505,31.7411384 L71.9582505,20.0775698 L66.1265254,25.9093541 Z M70.7323844,15.3901683 L70.7323844,36.4279893 L60.2138657,25.9093638 L70.7323844,15.3901683 Z M61.647622,25.9093444 L69.7185518,33.9803561 L69.7185518,17.8378952 L61.647622,25.9093444 Z M67.5239176,14.1620818 L67.5289774,37.6616861 L55.7767647,25.9093541 L67.5239176,14.1620818 Z M57.2105404,25.9093541 L66.5146177,35.2135258 L66.5106119,16.6091881 L57.2105404,25.9093541 Z M49.807797,26.4162755 L49.807797,25.4024326 L56.4120624,25.4024326 L56.4120624,26.4162755 L49.807797,26.4162755 Z M49.807797,25.4024326 L56.4120624,25.4024326 L56.4120624,26.4162755 L49.807797,26.4162755 L49.807797,25.4024326 Z M65.4096375,26.4162755 L65.4096375,25.4024326 L74.5719038,25.4024326 L74.5719038,26.4162755 L65.4096375,26.4162755 Z M65.4096375,25.4024326 L74.5719038,25.4024326 L74.5719038,26.4162755 L65.4096375,26.4162755 L65.4096375,25.4024326 Z" id="Stroke-1" fill-rule="nonzero"></path>
                <g id="Group-3" transform="translate(0.000000, 19.090909)">
                    <polyline id="Fill-3" points="1.08679245 11.9943939 0 11.9943939 0 0.730757576 6.44528302 0.730757576 6.44528302 1.74893939 1.08679245 1.74893939 1.08679245 5.64719697 6.06792453 5.64719697 6.06792453 6.66537879 1.08679245 6.66537879 1.08679245 11.9943939"></polyline>
                    <path d="M11.5320755,5.74212121 L13.4188679,5.74212121 C14.2943396,5.74212121 14.9680503,5.57507576 15.4415094,5.24098485 C15.9144654,4.90689394 16.1509434,4.40628788 16.1509434,3.73757576 C16.1509434,3.36689394 16.0855346,3.05348485 15.954717,2.7994697 C15.8238994,2.54439394 15.6427673,2.33757576 15.4113208,2.17848485 C15.1793711,2.01992424 14.8981132,1.90272727 14.5660377,1.82848485 C14.2339623,1.75477273 13.8666667,1.71712121 13.4641509,1.71712121 L11.5320755,1.71712121 L11.5320755,5.74212121 Z M11.5320755,11.9943939 L10.445283,11.9943939 L10.445283,0.730757576 L13.5849057,0.730757576 C14.1081761,0.730757576 14.5937107,0.784318182 15.0415094,0.889848485 C15.4893082,0.995909091 15.8767296,1.16825758 16.2037736,1.40742424 C16.5303145,1.64606061 16.7849057,1.95628788 16.9660377,2.33757576 C17.1471698,2.71939394 17.2377358,3.18659091 17.2377358,3.73757576 C17.2377358,4.15121212 17.1672956,4.52772727 17.0264151,4.86712121 C16.8855346,5.20704545 16.6943396,5.50083333 16.4528302,5.75007576 C16.2113208,5.99984848 15.9245283,6.19871212 15.5924528,6.34666667 C15.2603774,6.49515152 14.8981132,6.59113636 14.5056604,6.6330303 L17.6301887,11.9943939 L16.3018868,11.9943939 L13.3433962,6.72901515 L11.5320755,6.72901515 L11.5320755,11.9943939 L11.5320755,11.9943939 Z" id="Fill-4"></path>
                    <polyline id="Fill-5" points="22.5358491 10.9762121 28.2566038 10.9762121 28.2566038 11.9943939 21.4490566 11.9943939 21.4490566 0.730757576 28.0754717 0.730757576 28.0754717 1.74893939 22.5358491 1.74893939 22.5358491 5.61484848 27.7132075 5.61484848 27.7132075 6.6330303 22.5358491 6.6330303 22.5358491 10.9762121"></polyline>
                    <polyline id="Fill-6" points="33.4339623 10.9762121 39.154717 10.9762121 39.154717 11.9943939 32.3471698 11.9943939 32.3471698 0.730757576 38.9735849 0.730757576 38.9735849 1.74893939 33.4339623 1.74893939 33.4339623 5.61484848 38.6113208 5.61484848 38.6113208 6.6330303 33.4339623 6.6330303 33.4339623 10.9762121"></polyline>
                    <path d="M113.877233,2.54439394 C113.645786,2.205 113.348931,1.93242424 112.986667,1.72507576 C112.624403,1.51825758 112.186667,1.41484848 111.673459,1.41484848 C111.411824,1.41484848 111.145157,1.45727273 110.873459,1.54212121 C110.601761,1.6275 110.35522,1.75742424 110.133836,1.93242424 C109.912453,2.10742424 109.733836,2.3275 109.597987,2.59212121 C109.462138,2.85780303 109.394214,3.17068182 109.394214,3.53075758 C109.394214,3.89136364 109.459623,4.18886364 109.589937,4.42166667 C109.719748,4.655 109.893333,4.85386364 110.109182,5.01825758 C110.325031,5.18318182 110.571069,5.31787879 110.846792,5.4244697 C111.122516,5.5305303 111.411321,5.63659091 111.712201,5.74212121 C112.083522,5.86992424 112.457358,6.00727273 112.833711,6.15575758 C113.210063,6.30477273 113.548679,6.49780303 113.84956,6.73643939 C114.150943,6.97560606 114.396478,7.27787879 114.58717,7.64325758 C114.777862,8.00969697 114.873459,8.47371212 114.873459,9.03530303 C114.873459,9.59795455 114.771321,10.0831818 114.56805,10.4909848 C114.36478,10.8998485 114.100126,11.2365909 113.775597,11.5017424 C113.450566,11.7668939 113.079748,11.9631061 112.662138,12.0898485 C112.244528,12.2171212 111.824403,12.2807576 111.401761,12.2807576 C111.079748,12.2807576 110.757736,12.2462879 110.435723,12.1773485 C110.113711,12.1084091 109.806792,12.005 109.514969,11.8671212 C109.223145,11.7292424 108.951447,11.5542424 108.699874,11.3421212 C108.448302,11.13 108.226918,10.8860606 108.035723,10.610303 L108.971572,9.87848485 C109.203019,10.2820455 109.527547,10.6187879 109.945157,10.8887121 C110.362767,11.1591667 110.85283,11.2943939 111.416855,11.2943939 C111.68805,11.2943939 111.965283,11.2493182 112.247044,11.1591667 C112.528302,11.0690152 112.782893,10.9311364 113.008805,10.7455303 C113.235723,10.5599242 113.421887,10.3318939 113.567799,10.0619697 C113.713711,9.79098485 113.786667,9.47545455 113.786667,9.11537879 C113.786667,8.72242424 113.713711,8.39628788 113.567799,8.13643939 C113.421887,7.87712121 113.228176,7.65969697 112.986667,7.48416667 C112.745157,7.30916667 112.467925,7.16386364 112.156478,7.04666667 C111.844528,6.9305303 111.517484,6.81386364 111.175346,6.69666667 C110.823145,6.58 110.475472,6.44742424 110.133836,6.29893939 C109.791698,6.15098485 109.48478,5.95689394 109.213082,5.71825758 C108.941384,5.47962121 108.722516,5.18583333 108.556478,4.83530303 C108.39044,4.48530303 108.307421,4.05628788 108.307421,3.54719697 C108.307421,3.00575758 108.410566,2.53909091 108.616855,2.14666667 C108.822642,1.75477273 109.092327,1.43075758 109.423899,1.17621212 C109.756478,0.921666667 110.123774,0.736590909 110.526289,0.619393939 C110.928805,0.502727273 111.326289,0.444393939 111.718742,0.444393939 C112.442767,0.444393939 113.062138,0.579621212 113.574843,0.850606061 C114.088553,1.1205303 114.475975,1.44189394 114.73761,1.81257576 L113.877233,2.54439394" id="Fill-7"></path>
                    <path d="M120.262138,5.78984848 L122.103648,5.78984848 C122.958994,5.78984848 123.60805,5.61484848 124.050818,5.26484848 C124.493585,4.91537879 124.714969,4.40628788 124.714969,3.73757576 C124.714969,3.03810606 124.486038,2.52636364 124.028176,2.20287879 C123.570314,1.87886364 122.928302,1.71712121 122.103648,1.71712121 L120.262138,1.71712121 L120.262138,5.78984848 Z M119.174843,0.730757576 L122.193711,0.730757576 C122.737107,0.730757576 123.230692,0.791742424 123.673459,0.914242424 C124.116226,1.03568182 124.496101,1.22181818 124.812579,1.47106061 C125.12956,1.71977273 125.374088,2.03265152 125.545157,2.40916667 C125.715723,2.78568182 125.801761,3.22848485 125.801761,3.73757576 C125.801761,4.24666667 125.713208,4.69 125.53761,5.06598485 C125.361006,5.4430303 125.114969,5.75590909 124.797987,6.00462121 C124.481006,6.25386364 124.098616,6.44265152 123.650818,6.56939394 C123.202516,6.69666667 122.707421,6.76030303 122.164025,6.76030303 L120.262138,6.76030303 L120.262138,11.9943939 L119.174843,11.9943939 L119.174843,0.730757576 L119.174843,0.730757576 Z" id="Fill-8"></path>
                    <polygon id="Fill-9" points="129.891824 11.9943939 130.978616 11.9943939 130.978616 0.730757576 129.891824 0.730757576"></polygon>
                    <path d="M136.865912,5.74212121 L138.752704,5.74212121 C139.628176,5.74212121 140.301887,5.57507576 140.774843,5.24098485 C141.247799,4.90689394 141.484277,4.40628788 141.484277,3.73757576 C141.484277,3.36689394 141.418868,3.05348485 141.288553,2.7994697 C141.157233,2.54439394 140.976101,2.33757576 140.744654,2.17848485 C140.513208,2.01992424 140.231447,1.90272727 139.899371,1.82848485 C139.567799,1.75477273 139.2,1.71712121 138.797484,1.71712121 L136.865912,1.71712121 L136.865912,5.74212121 Z M136.865912,11.9943939 L135.778616,11.9943939 L135.778616,0.730757576 L138.918742,0.730757576 C139.441509,0.730757576 139.927044,0.784318182 140.374843,0.889848485 C140.822642,0.995909091 141.210063,1.16825758 141.53761,1.40742424 C141.864151,1.64606061 142.118239,1.95628788 142.299371,2.33757576 C142.481006,2.71939394 142.571069,3.18659091 142.571069,3.73757576 C142.571069,4.15121212 142.500629,4.52772727 142.359748,4.86712121 C142.218868,5.20704545 142.027673,5.50083333 141.786164,5.75007576 C141.544654,5.99984848 141.257862,6.19871212 140.925786,6.34666667 C140.594214,6.49515152 140.231447,6.59113636 139.839497,6.6330303 L142.964025,11.9943939 L141.63522,11.9943939 L138.67673,6.72901515 L136.865912,6.72901515 L136.865912,11.9943939 L136.865912,11.9943939 Z" id="Fill-10"></path>
                    <polygon id="Fill-11" points="146.78239 11.9943939 147.869686 11.9943939 147.869686 0.730757576 146.78239 0.730757576"></polygon>
                    <polyline id="Fill-12" points="156.095597 11.9943939 155.008805 11.9943939 155.008805 1.74893939 151.431447 1.74893939 151.431447 0.730757576 159.673459 0.730757576 159.673459 1.74893939 156.095597 1.74893939 156.095597 11.9943939"></polyline>
                </g>
                <g id="Group-2" transform="translate(27.272727, 38.181818)">
                    <polyline id="Fill-13" points="3.2922884 1.60840909 3.2922884 6.07886364 2.00576803 6.07886364 2.00576803 1.60840909 0.501065831 1.60840909 0.501065831 0.447045455 4.7969906 0.447045455 4.7969906 1.60840909 3.2922884 1.60840909"></polyline>
                    <path d="M8.18257053,2.17318182 C8.18257053,2.04060606 8.15598746,1.93348485 8.10332288,1.85075758 C8.05015674,1.76909091 7.98244514,1.70545455 7.89918495,1.66037879 C7.81592476,1.61530303 7.72263323,1.58454545 7.61931034,1.56863636 C7.51598746,1.55272727 7.41667712,1.54477273 7.32087774,1.54477273 L6.63272727,1.54477273 L6.63272727,2.85727273 L7.24514107,2.85727273 C7.35097179,2.85727273 7.45931034,2.84772727 7.57015674,2.82916667 C7.68100313,2.81113636 7.78181818,2.77772727 7.87260188,2.73 C7.96338558,2.68227273 8.03761755,2.61333333 8.09579937,2.52318182 C8.15347962,2.4330303 8.18257053,2.31636364 8.18257053,2.17318182 Z M8.23523511,6.07886364 L7.07862069,3.84363636 L6.64025078,3.84363636 L6.64025078,6.07886364 L5.38382445,6.07886364 L5.38382445,0.447045455 L7.41517241,0.447045455 C7.67097179,0.447045455 7.92025078,0.475151515 8.16401254,0.53030303 C8.40727273,0.586515152 8.62545455,0.680378788 8.81805643,0.812954545 C9.01115987,0.945530303 9.16564263,1.1205303 9.28100313,1.33795455 C9.39636364,1.55537879 9.45404389,1.82636364 9.45404389,2.14931818 C9.45404389,2.53113636 9.35623824,2.8519697 9.16062696,3.11181818 C8.96501567,3.37166667 8.69416928,3.55727273 8.34808777,3.66863636 L9.7399373,6.07886364 L8.23523511,6.07886364 L8.23523511,6.07886364 Z" id="Fill-14"></path>
                    <path d="M12.5537304,1.95045455 L11.8766144,3.88340909 L13.2157994,3.88340909 L12.5537304,1.95045455 Z M13.9831975,6.07886364 L13.5694044,4.97318182 L11.5079624,4.97318182 L11.1167398,6.07886364 L9.71736677,6.07886364 L11.9518495,0.447045455 L13.2007524,0.447045455 L15.4126646,6.07886364 L13.9831975,6.07886364 L13.9831975,6.07886364 Z" id="Fill-15"></path>
                    <polyline id="Fill-16" points="18.2715987 6.07886364 16.9850784 6.07886364 14.9687774 0.447045455 16.4132915 0.447045455 17.6471473 4.44022727 17.6772414 4.44022727 18.9035737 0.447045455 20.3255172 0.447045455 18.2715987 6.07886364"></polyline>
                    <polyline id="Fill-17" points="20.7618809 6.07886364 20.7618809 0.447045455 24.3430721 0.447045455 24.3430721 1.5925 22.0032602 1.5925 22.0032602 2.65840909 24.2151724 2.65840909 24.2151724 3.74871212 22.0032602 3.74871212 22.0032602 4.9175 24.4784953 4.9175 24.4784953 6.07886364 20.7618809 6.07886364"></polyline>
                    <polyline id="Fill-18" points="25.328652 6.07886364 25.328652 0.447045455 26.6226959 0.447045455 26.6226959 4.89363636 28.6841379 4.89363636 28.6841379 6.07886364 25.328652 6.07886364"></polyline>
                </g>
                <g id="Group" transform="translate(93.636364, 38.181818)">
                    <path d="M2.9514965,1.95045455 L2.27227972,3.88340909 L3.61661538,3.88340909 L2.9514965,1.95045455 Z M4.38696503,6.07886364 L3.97158042,4.97318182 L1.90170629,4.97318182 L1.50948252,6.07886364 L0.104727273,6.07886364 L2.3478042,0.447045455 L3.60100699,0.447045455 L5.82193007,6.07886364 L4.38696503,6.07886364 L4.38696503,6.07886364 Z" id="Fill-19"></path>
                    <path d="M9.9641958,6.08681818 C9.61426573,6.1769697 9.23311888,6.22204545 8.82025175,6.22204545 C8.39227972,6.22204545 7.99804196,6.15045455 7.63804196,6.00727273 C7.27804196,5.86409091 6.96839161,5.66257576 6.70909091,5.40272727 C6.45029371,5.14287879 6.24688112,4.83159091 6.10137063,4.46833333 C5.95485315,4.10454545 5.88234965,3.70045455 5.88234965,3.255 C5.88234965,2.80424242 5.95636364,2.39590909 6.1048951,2.03 C6.25342657,1.66409091 6.45885315,1.35280303 6.72067133,1.09560606 C6.98198601,0.837878788 7.28962238,0.640606061 7.64206993,0.502727273 C7.99451748,0.364848485 8.37465734,0.295909091 8.78198601,0.295909091 C9.20542657,0.295909091 9.59815385,0.363787879 9.96067133,0.499015152 C10.3231888,0.633712121 10.6177343,0.815606061 10.8443077,1.04363636 L10.0286434,2.02204545 C9.90276923,1.86878788 9.73661538,1.74204545 9.53018182,1.6444697 C9.32374825,1.54583333 9.08962238,1.49704545 8.8278042,1.49704545 C8.60123077,1.49704545 8.39227972,1.5405303 8.20095105,1.6280303 C8.00911888,1.71606061 7.84296503,1.8380303 7.70248951,1.9944697 C7.56151049,2.15090909 7.45174825,2.33598485 7.37420979,2.55128788 C7.29566434,2.76606061 7.2568951,3.00045455 7.2568951,3.255 C7.2568951,3.51484848 7.29163636,3.75348485 7.36262937,3.97090909 C7.43311888,4.18886364 7.53734266,4.3755303 7.6758042,4.53143939 C7.81476923,4.68840909 7.98545455,4.80984848 8.18987413,4.89787879 C8.39328671,4.98537879 8.62640559,5.02886364 8.88772028,5.02886364 C9.03927273,5.02886364 9.18226573,5.01666667 9.31871329,4.99280303 C9.45415385,4.96893939 9.58002797,4.93075758 9.69633566,4.87772727 L9.69633566,3.85159091 L8.67625175,3.85159091 L8.67625175,2.75386364 L10.8815664,2.75386364 L10.8815664,5.73734848 C10.6202517,5.88 10.3141259,5.99666667 9.9641958,6.08681818" id="Fill-20"></path>
                    <polyline id="Fill-21" points="11.9394126 6.07886364 11.9394126 0.447045455 15.5343776 0.447045455 15.5343776 1.5925 13.1855664 1.5925 13.1855664 2.65840909 15.405986 2.65840909 15.405986 3.74871212 13.1855664 3.74871212 13.1855664 4.9175 15.6698182 4.9175 15.6698182 6.07886364 11.9394126 6.07886364"></polyline>
                    <polyline id="Fill-22" points="19.9218462 6.07886364 17.7693986 2.39590909 17.7467413 2.39590909 17.7774545 6.07886364 16.5232448 6.07886364 16.5232448 0.447045455 17.995972 0.447045455 20.1408671 4.12204545 20.164028 4.12204545 20.1333147 0.447045455 21.3875245 0.447045455 21.3875245 6.07886364 19.9218462 6.07886364"></polyline>
                    <path d="M26.3187692,5.97969697 C25.9713566,6.14674242 25.5710769,6.23 25.1184336,6.23 C24.7050629,6.23 24.3239161,6.15840909 23.973986,6.01522727 C23.6240559,5.87204545 23.3204476,5.6694697 23.0641678,5.40643939 C22.8073846,5.14393939 22.6054825,4.83 22.4594685,4.46409091 C22.3134545,4.09818182 22.240951,3.69515152 22.240951,3.255 C22.240951,2.80424242 22.314965,2.39590909 22.4634965,2.03 C22.612028,1.66409091 22.816951,1.35280303 23.0792727,1.09560606 C23.3405874,0.837878788 23.6482238,0.640606061 24.0006713,0.502727273 C24.3526154,0.364848485 24.7327552,0.295909091 25.1410909,0.295909091 C25.5187133,0.295909091 25.8897902,0.366439394 26.2548252,0.506439394 C26.6198601,0.6475 26.9154126,0.852727273 27.141986,1.12318182 L26.2664056,2.04590909 C26.1455664,1.87090909 25.9864615,1.74098485 25.7906014,1.65613636 C25.5937343,1.57128788 25.3928392,1.52886364 25.1859021,1.52886364 C24.9593287,1.52886364 24.7518881,1.57287879 24.5630769,1.66037879 C24.3742657,1.74734848 24.2121399,1.86878788 24.0756923,2.02204545 C23.9402517,2.17636364 23.8345175,2.35719697 23.758993,2.56719697 C23.682965,2.77613636 23.6457063,3.00575758 23.6457063,3.255 C23.6457063,3.50954545 23.682965,3.74287879 23.758993,3.955 C23.8345175,4.16712121 23.9387413,4.34848485 24.0721678,4.50015152 C24.2055944,4.65128788 24.3657063,4.76901515 24.552,4.85386364 C24.7382937,4.93871212 24.9417063,4.98113636 25.1637483,4.98113636 C25.420028,4.98113636 25.6445874,4.92810606 25.8359161,4.82204545 C26.0267413,4.71598485 26.1803077,4.57810606 26.2966154,4.40840909 L27.1953566,5.29931818 C26.9582098,5.58568182 26.6666853,5.81212121 26.3187692,5.97969697" id="Fill-23"></path>
                    <polyline id="Fill-24" points="30.2540979 3.6925 30.2540979 6.07886364 28.9621259 6.07886364 28.9621259 3.6925 26.9536783 0.447045455 28.517035 0.447045455 29.656951 2.53113636 30.7978741 0.447045455 32.3083636 0.447045455 30.2540979 3.6925"></polyline>
                </g>
            </g>
        </g>
    </g>
</svg>