<?xml version="1.0" encoding="UTF-8"?>
<svg width="80px" height="80px" viewBox="0 0 80 80" version="1.1" xmlns="http://www.w3.org/2000/svg" xmlns:xlink="http://www.w3.org/1999/xlink">
    <!-- Generator: Sketch 46.2 (44496) - http://www.bohemiancoding.com/sketch -->
    <title>Group 4</title>
    <desc>Created with Sketch.</desc>
    <defs></defs>
    <g id="Page-1" stroke="none" stroke-width="1" fill="none" fill-rule="evenodd">
        <g id="Artboard-2" transform="translate(-120.000000, -270.000000)">
            <g id="Group-4" transform="translate(120.000000, 270.000000)">
                <circle id="Oval" fill="#4FBEF3" cx="40" cy="40" r="40"></circle>
                <g id="Group" transform="translate(22.000000, 17.000000)" fill-rule="nonzero" fill="#FFFFFF">
                    <g id="Group-2" transform="translate(0.000000, 6.000000)">
                        <g id="notifications">
                            <path d="M28.5446809,29.9540405 L4.04863222,29.9540405 C1.82978723,29.9540405 0.0192097264,28.0141215 0.0192097264,25.6333117 C0.0192097264,23.3759514 1.65227964,21.5065749 3.71136778,21.3302186 L3.71136778,10.5724858 C3.71136778,6.11067206 7.08401216,2.46009717 11.2199392,2.46009717 L21.3733739,2.46009717 C25.5093009,2.46009717 28.8819453,6.09303644 28.8819453,10.5724858 L28.8819453,21.3302186 C30.9410334,21.5065749 32.5741033,23.3759514 32.5741033,25.6333117 C32.5741033,28.0141215 30.7812766,29.9540405 28.5446809,29.9540405 Z M4.04863222,23.0937814 C2.80607903,23.0937814 1.79428571,24.2400972 1.79428571,25.6333117 C1.79428571,27.0265263 2.80607903,28.1728421 4.04863222,28.1728421 L28.5446809,28.1728421 C29.787234,28.1728421 30.7812766,27.0265263 30.7812766,25.6333117 C30.7812766,24.2400972 29.7694833,23.0937814 28.5446809,23.0937814 L27.0891185,23.0937814 L27.0891185,10.5724858 C27.0891185,7.08063158 24.5152584,4.24129555 21.3733739,4.24129555 L11.2199392,4.24129555 C8.06030395,4.24129555 5.50419453,7.08063158 5.50419453,10.5724858 L5.50419453,23.0937814 L4.04863222,23.0937814 Z" id="Shape"></path>
                            <path d="M29.6629787,0.731805668 C26.2548328,0.731805668 23.4857143,3.48296356 23.4857143,6.86900405 C23.4857143,10.2550445 26.2548328,13.0062024 29.6629787,13.0062024 C33.0711246,13.0062024 35.8402432,10.2550445 35.8402432,6.86900405 C35.8402432,3.48296356 33.0711246,0.731805668 29.6629787,0.731805668 Z M30.6215198,9.09109312 C30.6215198,9.21454251 30.6215198,9.30272065 30.603769,9.37326316 C30.603769,9.42617004 30.5682675,9.49671255 30.532766,9.58489069 C30.4972644,9.67306883 30.4262614,9.72597571 30.3197568,9.74361134 C30.2132523,9.77888259 30.088997,9.79651822 29.9114894,9.79651822 C29.7517325,9.79651822 29.6097264,9.77888259 29.5209726,9.74361134 C29.4144681,9.70834008 29.343465,9.6554332 29.3079635,9.58489069 C29.272462,9.51434818 29.2369605,9.44380567 29.2369605,9.37326316 C29.2369605,9.30272065 29.2192097,9.21454251 29.2192097,9.09109312 L29.2192097,6.25175709 L29.1127052,6.33993522 C28.899696,6.49865587 28.7044377,6.58683401 28.5624316,6.58683401 C28.4026748,6.58683401 28.2429179,6.49865587 28.1009119,6.33993522 C27.9056535,6.12830769 27.8168997,5.95195142 27.8168997,5.79323077 C27.8168997,5.65214575 27.9056535,5.4934251 28.1009119,5.33470445 L29.4144681,4.15311741 L29.4322188,4.13548178 C29.5742249,3.99439676 29.7339818,3.92385425 29.9114894,3.92385425 C30.0534954,3.92385425 30.16,3.94148988 30.2487538,3.95912551 C30.3375076,3.99439676 30.4085106,4.01203239 30.4617629,4.04730364 C30.5150152,4.0825749 30.5505167,4.13548178 30.5682675,4.20602429 C30.5860182,4.2765668 30.603769,4.34710931 30.603769,4.40001619 C30.603769,4.45292308 30.603769,4.52346559 30.603769,4.62927935 L30.603769,9.09109312 L30.6215198,9.09109312 Z" id="Shape"></path>
                        </g>
                    </g>
                    <polygon id="Line" points="16.5 10.25 16.5 0.75 15 0.75 15 10.25"></polygon>
                </g>
            </g>
        </g>
    </g>
</svg>