<?xml version="1.0" encoding="UTF-8"?>
<svg width="80px" height="80px" viewBox="0 0 80 80" version="1.1" xmlns="http://www.w3.org/2000/svg" xmlns:xlink="http://www.w3.org/1999/xlink">
    <!-- Generator: Sketch 46.2 (44496) - http://www.bohemiancoding.com/sketch -->
    <title>Group 6</title>
    <desc>Created with Sketch.</desc>
    <defs></defs>
    <g id="Page-1" stroke="none" stroke-width="1" fill="none" fill-rule="evenodd">
        <g id="Artboard-2" transform="translate(-431.000000, -270.000000)">
            <g id="Group-6" transform="translate(431.000000, 270.000000)">
                <circle id="Oval" fill="#4FBEF3" cx="40" cy="40" r="40"></circle>
                <g id="Group-3" transform="translate(22.000000, 22.000000)" fill-rule="nonzero" fill="#FFFFFF">
                    <path d="M16.5776105,36 L10.2445908,34.3074753 L10.0752587,33.9351199 C9.71966134,33.0888575 9.12699906,31.1593794 9.41486359,29.8222849 C9.41486359,29.8053597 9.38099718,29.7207334 9.29633114,29.6361072 L6.34995296,26.6911142 C6.26528692,26.606488 6.18062088,26.5726375 6.16368768,26.5726375 L6.16368768,26.5726375 C4.84289746,26.8603667 2.89557855,26.2679831 2.06585136,25.9125529 L1.69332079,25.7433004 L0,19.3963329 L0.253998119,19.0747532 C0.795860771,18.3469676 2.18438382,16.8575458 3.48824083,16.4513399 C3.50517404,16.4513399 3.55597366,16.3836389 3.58984008,16.2651622 L4.65663217,12.2538787 C4.69049859,12.135402 4.67356538,12.0507757 4.65663217,12.0338505 C3.74223895,11.0352609 3.28504233,9.05500705 3.16650988,8.15796897 L3.11571025,7.75176305 L7.75540922,3.11424542 L8.16180621,3.16502116 C9.07619944,3.28349788 11.0404516,3.7235543 12.056444,4.65444288 C12.0733772,4.65444288 12.1580433,4.67136812 12.2765757,4.65444288 L16.289746,3.57122708 C16.4082785,3.53737659 16.4760113,3.48660085 16.4929445,3.4696756 C16.8993415,2.18335684 18.3894638,0.795486601 19.1175917,0.253878702 L19.4393227,0 L25.7723424,1.69252468 L25.9416745,2.06488011 C26.2972719,2.91114245 26.8899341,4.84062059 26.6020696,6.17771509 C26.6020696,6.19464034 26.635936,6.27926657 26.7206021,6.36389281 L29.650047,9.29196051 C29.7347131,9.37658674 29.8193791,9.41043724 29.8363123,9.41043724 L29.8363123,9.41043724 C31.1571025,9.12270804 33.1044214,9.71509168 33.9341486,10.0705219 L34.3066792,10.2397743 L36,16.5698166 L35.7460019,16.8913963 C35.2041392,17.6191819 33.8156162,19.1086037 32.5117592,19.5148096 C32.494826,19.5148096 32.4440263,19.5825106 32.4101599,19.7009873 L31.3433678,23.7122708 C31.3095014,23.8307475 31.3264346,23.9153738 31.3433678,23.932299 C32.2577611,24.9308886 32.7149577,26.9111425 32.8334901,27.8081805 L32.8842897,28.2143865 L28.2445908,32.8519041 L27.8381938,32.8011283 C26.9238006,32.6826516 24.9595484,32.2425952 23.943556,31.3117066 C23.9266228,31.3117066 23.8419567,31.2947814 23.7234243,31.3117066 L19.710254,32.3949224 C19.5917215,32.4287729 19.5239887,32.4795487 19.5070555,32.4964739 C19.1006585,33.7827927 17.6105362,35.1706629 16.8824083,35.7122708 L16.5776105,36 Z M11.4976482,32.8857546 L16.2220132,34.1551481 C16.9501411,33.528914 17.7460019,32.6318759 17.9322672,32.022567 C18.1185325,31.4301834 18.6265287,30.9732017 19.303857,30.787024 L23.3170273,29.7038082 C23.9943556,29.5176305 24.6716839,29.6699577 25.1288805,30.0930889 C25.6030103,30.51622 26.7375353,30.9055007 27.6857949,31.0747532 L31.1401693,27.6220028 C30.9708373,26.674189 30.5813735,25.5401975 30.1580433,25.0832158 C29.7347131,24.6262341 29.5992474,23.9492243 29.7685795,23.2722144 L30.8353716,19.2609309 C31.0216369,18.583921 31.4788335,18.0761636 32.0714958,17.8899859 C32.6810913,17.7038082 33.5785513,16.9083216 34.20508,16.180536 L32.9520226,11.4753173 C32.0376294,11.1537377 30.869238,10.9167842 30.2427093,11.0521862 C29.6331138,11.1875882 28.9727187,10.9675599 28.4816557,10.4767278 L25.5352775,7.54866008 C25.0442145,7.05782793 24.8240828,6.3977433 24.9595484,5.78843441 C25.0950141,5.16220028 24.8579492,3.99435825 24.5362183,3.08039492 L19.8287865,1.81100141 C19.1006585,2.43723554 18.3047977,3.33427362 18.1185325,3.94358251 C17.9322672,4.53596615 17.4242709,4.99294781 16.7469426,5.17912553 L12.7337723,6.26234133 C12.056444,6.44851904 11.3791157,6.29619182 10.9219191,5.87306065 C10.4647225,5.44992948 9.31326435,5.0606488 8.3650047,4.89139633 L4.91063029,8.34414669 C5.07996237,9.29196051 5.46942615,10.425952 5.89275635,10.8829337 C6.31608655,11.3399154 6.45155221,12.0169252 6.28222013,12.6939351 L5.21542803,16.7052186 C5.02916275,17.3822285 4.57196613,17.8899859 3.97930386,18.0761636 C3.36970837,18.2623413 2.47224835,19.0578279 1.84571966,19.7856135 L3.09877705,24.5077574 C4.01317027,24.8293371 5.18156162,25.0662906 5.80809031,24.9308886 C6.41768579,24.7954866 7.0611477,25.0155148 7.56914393,25.506347 L10.5155221,28.4513399 C11.0065851,28.9421721 11.2267168,29.6022567 11.0912512,30.1946403 C10.9388523,30.8039492 11.1759172,31.9887165 11.4976482,32.8857546 Z M18.0169332,27.3004231 C15.5277516,27.3004231 13.190969,26.3356841 11.4299153,24.5754584 C9.66886171,22.8152327 8.70366886,20.4795487 8.70366886,17.9915374 C8.70366886,15.5035261 9.66886171,13.167842 11.4299153,11.4076164 C15.0536218,7.78561354 20.9633114,7.78561354 24.6039511,11.4076164 L24.6039511,11.4076164 C28.2276576,15.0296192 28.2276576,20.9365303 24.6039511,24.5754584 C22.8428975,26.3356841 20.5061148,27.3004231 18.0169332,27.3004231 Z M18.0169332,10.3921016 C16.0696143,10.3921016 14.1222954,11.1368124 12.6321731,12.6262341 C11.1928504,14.0648801 10.3969897,15.977433 10.3969897,18.0084626 C10.3969897,20.0394922 11.1928504,21.9520451 12.6321731,23.3906911 C15.5108184,26.2679831 20.523048,26.2679831 23.4016933,23.3906911 C26.3650047,20.4287729 26.3650047,15.5881523 23.4016933,12.6262341 C21.911571,11.1198872 19.9642521,10.3921016 18.0169332,10.3921016 Z" id="Shape"></path>
                </g>
            </g>
        </g>
    </g>
</svg>